<?xml version="1.0" encoding="UTF-8" standalone="no"?>
<!-- Created with Inkscape (http://www.inkscape.org/) -->

<svg
   version="1.1"
   id="svg1"
   width="550"
   height="322.84003"
   style="background-color:#fff;"
   viewBox="0 0 550 322.84003"
   sodipodi:docname="badger_letters_logo.svg"
   inkscape:version="1.4.2 (f4327f4, 2025-05-13)"
   inkscape:export-filename="letters_logo.svg"
   inkscape:export-xdpi="96"
   inkscape:export-ydpi="96"
   xmlns:inkscape="http://www.inkscape.org/namespaces/inkscape"
   xmlns:sodipodi="http://sodipodi.sourceforge.net/DTD/sodipodi-0.dtd"
   xmlns="http://www.w3.org/2000/svg"
   xmlns:svg="http://www.w3.org/2000/svg">
  <defs
     id="defs1" />
  <sodipodi:namedview
     id="namedview1"
     pagecolor="#ffffff"
     bordercolor="#000000"
     borderopacity="0.25"
     inkscape:showpageshadow="2"
     inkscape:pageopacity="0.0"
     inkscape:pagecheckerboard="0"
     inkscape:deskcolor="#d1d1d1"
     inkscape:zoom="0.70710678"
     inkscape:cx="298.39906"
     inkscape:cy="461.74073"
     inkscape:window-width="1127"
     inkscape:window-height="993"
     inkscape:window-x="-6"
     inkscape:window-y="0"
     inkscape:window-maximized="0"
     inkscape:current-layer="g1"
     inkscape:export-bgcolor="#ffffffff">
    <inkscape:page
       x="0"
       y="0"
       width="550"
       height="322.84003"
       id="page2"
       margin="0"
       bleed="0" />
  </sodipodi:namedview>
  <g
     inkscape:groupmode="layer"
     inkscape:label="Logo"
     id="g1"
     transform="translate(-301.22479,-479.72916)">
    <path
       style="display:inline;fill:#000000;stroke-width:1.82208"
       d="m 378.20897,801.12923 c -22.27182,-3.7115 -43.22021,-17.84741 -57.46208,-35.74148 -7.33864,-9.22057 -17.8139,-29.22799 -19.5221,-33.8473 10.02146,-5.08445 28.24488,-13.90873 46.7314,-22.57894 1.88211,3.18141 2.43017,4.40206 4.70966,8.41181 10.29361,18.10712 23.35495,31.77004 43.3074,31.77004 13.97033,0 23.74899,-4.29501 32.51843,-14.28284 12.32102,-14.03285 12.02837,-11.70276 12.64824,-100.70969 l 0.56151,-80.62725 h 26.33223 26.33224 l -0.0317,78.80517 c -0.0351,87.32222 -0.70282,94.19182 -11.25314,115.76952 -7.86673,16.08911 -27.23513,35.59512 -43.3778,43.68597 -19.61223,9.82979 -39.99649,12.92748 -61.49436,9.34499 z m 252.81337,-77.18272 v -75.5585 l 75.76746,-0.51353 c 0,0 57.56432,0.0783 71.65386,-3.25139 7.06291,-1.66922 14.96668,-8.6362 14.91847,-16.98516 -0.0481,-8.34893 -4.38373,-16.66021 -14.91847,-19.49693 -4.49893,-1.21144 -26.11892,-1.82173 -56.84237,-1.60454 -27.27012,0.19275 -58.80632,0.23282 -70.08049,0.0891 l -20.49846,-0.2615 v -26.4202 -26.42024 h 73.7048 c 47.63226,0 77.1204,0.72472 83.36042,2.04871 33.57573,7.12403 57.90718,36.01518 58.25053,69.16663 0.14995,14.47257 -4.01564,29.20353 -10.99771,38.8923 l -5.15966,7.15988 7.05527,9.23888 c 14.58565,19.09997 18.1586,48.41537 8.85797,72.67848 -7.81176,20.37906 -30.67618,39.69229 -53.1149,44.86533 -4.69394,1.08214 -39.75027,1.8605 -84.97358,1.88666 l -76.98314,0.0446 z m 156.75902,19.95406 c 14.48685,-7.49142 14.40802,-31.21891 -0.13227,-39.80804 -4.33585,-2.56129 -11.98313,-2.98009 -54.41554,-2.98009 h -49.37072 v 22.77606 22.77605 h 49.2868 c 40.49119,0 50.24066,-0.49325 54.63173,-2.76398 z M 590.23337,540.76899 c -0.61545,0 -1.11901,26.55369 -1.11901,59.0082 v 59.00819 l 5.01074,3.26129 c 6.53854,4.25567 9.11285,7.68955 11.21386,14.9581 4.70382,16.27316 -12.13933,33.57963 -29.33385,30.14073 -7.8643,-1.57287 -17.31496,-11.2632 -18.82269,-19.30007 -1.87119,-9.97436 0.25862,-15.6 9.26896,-24.48289 l 8.0863,-7.97189 v -66.03422 -66.03422 m -32.79756,-30.667 V 609.24555 725.8359 l 5.4756,3.23451 c 15.57475,9.20023 14.18276,34.03861 -2.3472,41.88259 -8.16432,3.87424 -13.37824,3.83786 -21.31294,-0.14868 v 3e-5 c -7.66801,-3.85254 -14.613,-13.69201 -14.613,-20.70327 0,-7.69654 5.01644,-16.72348 11.92373,-21.45643 l 6.15016,-4.21415 0.0146,-122.35067 0.0146,-122.35067 m 12.46698,276.85354 c 2.22729,-1.56005 4.04961,-4.57025 4.04961,-6.68934 0,-4.89615 -5.0201,-10.51714 -9.39284,-10.51714 -4.04675,0 -10.65011,6.21355 -10.65011,10.02146 0,3.33721 6.41385,10.02146 9.61605,10.02146 1.28024,0 4.15004,-1.27641 6.37729,-2.83644 z m 48.56057,-67.44396 c 3.39827,-3.39828 3.74288,-10.10495 0.67677,-13.17106 -3.86129,-3.86129 -12.03885,-2.5945 -15.29088,2.36869 -2.76484,4.21973 -2.76484,4.89072 0,9.11043 3.43178,5.23753 10.27609,6.02993 14.61411,1.69194 z"
       id="path30"
       sodipodi:nodetypes="ssccsssscccssssscccssssscccsssscssssccssscccsscscsssssccccccsssssscccsssssssssss"
       inkscape:label="letter"
       inkscape:export-filename="letters_logo.svg"
       inkscape:export-xdpi="96"
       inkscape:export-ydpi="96" />
  </g>
</svg>
